<?xml version="1.0" encoding="UTF-8"?>
<svg id="Layer_2" data-name="Layer 2" xmlns="http://www.w3.org/2000/svg" viewBox="0 0 263.82 247.72">
  <defs>
    <style>
      .cls-1 {
        fill: #fff4ee;
        stroke: transparent;
        stroke-miterlimit: 10;
      }
    </style>
  </defs>
  <g id="Layer_2-2" data-name="Layer 2">
    <g>
      <g>
        <path class="cls-1" d="m34.55,68.59h31.9l4.81,72.94h-18.81l-.84-9.77h-1.87c-.5,3.75-2.1,6.59-4.8,8.56-2.69,1.96-5.78,2.93-9.26,2.93-2.56,0-5.2-.6-7.9-1.81-2.71-1.21-5.25-3.12-7.62-5.73-2.39-2.63-4.49-6.01-6.31-10.16-1.84-4.18-3.14-9.31-3.92-15.42L1.16,41.19c-1.65-13-.2-23.07,4.43-30.05C10.29,4.07,17.92.5,28.44.5s19.33,3.64,25.64,10.86c6.22,7.12,9.73,17.12,10.57,29.83l1.54,23.37h-30.03l-2.5-26.13c-.22-2.27-.67-3.42-1.36-3.42s-.92,1.14-.7,3.42l2.94,30.16Zm4.3,44.12c.19,1.95.6,2.93,1.24,2.93s.86-.97.67-2.93l-2.04-21.37h-1.95l2.08,21.37Z"/>
        <path class="cls-1" d="m132.91,2.78v138.75h-29.75l-9.87-70.54h-1.66l9.21,70.54h-27.74L64.24,2.78h34.16l10.78,80.83h1.64L101.05,2.78h31.86Z"/>
        <path class="cls-1" d="m192.56,2.78l-.92,138.75h-27.74l.85-25.54h-1.9l-.8,25.54h-27.74L143,2.78h49.56Zm-26.85,83.93l.56-16.92h-1.99l-.53,16.92h1.96Z"/>
        <path class="cls-1" d="m234.51,2.78c10.62,0,18.43,3.44,23.4,10.26,4.9,6.73,6.45,17.03,4.74,30.68l-.13,1.05c-.77,6.13-1.99,11.4-3.66,15.83-1.66,4.4-3.49,8.05-5.5,10.99-2,2.92-4.07,5.06-6.2,6.44-2.13,1.38-4.07,2.06-5.82,2.06l-.26,2.35c1.75,0,3.52.78,5.3,2.34,1.78,1.55,3.32,3.74,4.61,6.56,1.28,2.8,2.21,6.22,2.79,10.24.57,3.99.55,8.44-.07,13.33l-.18,1.46c-.61,4.83-1.09,9.31-1.46,13.46-.36,4.11-.42,8.01-.16,11.71h-27.75c-.35-3.81-.41-7.77-.17-11.89.24-4.15.6-8.69,1.07-13.65l1.6-16.68c.13-1.38.16-2.24.08-2.55-.08-.31-.55-.47-1.41-.47h-.32l-4.25,45.24h-27.74L201.94,2.78h32.57Zm-6.62,62.99h.33c.89,0,1.4-.17,1.55-.5.14-.33.29-1.24.43-2.73l2.13-22.2c.14-1.41.16-2.3.08-2.66-.08-.35-.58-.53-1.49-.53h-.34l-2.69,28.62Z"/>
      </g>
      <g>
        <path class="cls-1" d="m57.43,224.99c.13,1.41.45,2.12.97,2.12s.72-.7.6-2.12l-2.11-24.3h24.09l1.33,22.44c.47,7.92-1.27,13.9-5.19,18.01-3.88,4.07-9.65,6.09-17.34,6.09s-13.47-2-17.89-6.02c-4.46-4.06-7.17-10.06-8.1-18.07l-5.71-49.2c-1.06-9.14.32-16.19,4.19-21.06,3.91-4.92,10.1-7.4,18.54-7.4s15.45,2.53,20.42,7.55c4.92,4.97,7.62,11.97,8.15,20.9l1.42,23.95h-24.17l-2.25-25.89c-.14-1.6-.49-2.4-1.04-2.4s-.76.8-.62,2.4l4.7,53.01Z"/>
        <path class="cls-1" d="m105.63,147.06c8.52,0,15.13,2.39,19.8,7.14,4.62,4.7,6.91,11.91,6.92,21.52v.74c0,4.33-.45,8.06-1.35,11.2-.9,3.12-2.01,5.72-3.35,7.81-1.33,2.08-2.79,3.61-4.39,4.59-1.59.98-3.1,1.47-4.53,1.47l.03,1.68c1.42,0,2.94.56,4.56,1.67,1.61,1.11,3.08,2.68,4.42,4.7,1.33,2.01,2.44,4.47,3.33,7.37.88,2.88,1.32,6.09,1.32,9.63v1.06c0,3.5.07,6.76.2,9.78.13,3,.49,5.85,1.08,8.55h-22.85c-.67-2.79-1.11-5.68-1.32-8.68-.21-3.02-.37-6.32-.47-9.91l-.34-12.05c-.03-1-.09-1.61-.18-1.84-.09-.23-.49-.34-1.2-.34h-.26l.98,32.81h-22.85l-5.68-98.91h26.13Zm.76,44.27h.27c.72,0,1.12-.12,1.21-.36.08-.24.11-.88.08-1.94l-.44-15.7c-.03-.99-.09-1.62-.19-1.87-.1-.25-.52-.37-1.26-.37h-.28l.61,20.24Z"/>
        <path class="cls-1" d="m158.91,171.08l-.41,14.32h10.89l-.9,22.11h-10.62l-.52,18.27h10.4l-.83,20.18h-33l.12-98.91h36.93l-.98,24.03h-11.07Z"/>
        <path class="cls-1" d="m197.8,147.06l-5.33,57.27h1.6l5.43-57.27h16.47l-3.78,57.27h1.6l3.89-57.27h25.56l-17.82,98.91h-25.13l2.63-32.4h-1.58l-2.57,32.4h-25.13l-1.4-98.91h25.56Z"/>
      </g>
    </g>
  </g>
</svg>