<?xml version="1.0" standalone="no"?>
<!DOCTYPE svg PUBLIC "-//W3C//DTD SVG 20010904//EN"
 "http://www.w3.org/TR/2001/REC-SVG-20010904/DTD/svg10.dtd">
<svg version="1.0" xmlns="http://www.w3.org/2000/svg"
 width="1100.000000pt" height="1100.000000pt" viewBox="0 0 1100.000000 1100.000000"
 preserveAspectRatio="xMidYMid meet">
<metadata>
Created by potrace 1.14, written by Peter Selinger 2001-2017
</metadata>
<g transform="translate(0.000000,1100.000000) scale(0.100000,-0.100000)"
fill="#000000" stroke="none">
<path d="M1128 10485 c-1 -2 -28 -6 -58 -10 -80 -9 -136 -19 -170 -30 -10 -3
-27 -8 -38 -10 -92 -17 -278 -95 -339 -142 -18 -14 -33 -22 -33 -18 0 3 -6 0
-14 -7 -7 -7 -33 -29 -57 -48 -53 -43 -127 -117 -154 -154 -11 -16 -26 -34
-32 -41 -7 -8 -13 -18 -13 -23 0 -5 -7 -15 -15 -22 -22 -18 -99 -185 -128
-275 -24 -77 -49 -186 -64 -277 -10 -65 -13 -2914 -3 -2983 5 -33 12 -85 16
-115 3 -30 8 -58 10 -61 2 -4 6 -24 10 -44 7 -47 63 -215 77 -232 5 -7 7 -13
3 -13 -9 0 81 -166 126 -233 77 -114 282 -297 332 -297 9 0 16 -4 16 -8 0 -6
50 -29 80 -37 5 -2 24 -9 58 -22 9 -4 24 -7 32 -8 9 -1 31 -7 50 -13 19 -6 59
-13 88 -16 29 -3 57 -8 62 -11 6 -4 10 -3 10 2 0 4 35 8 78 7 143 -2 329 61
455 153 61 45 138 137 167 200 12 26 26 56 32 66 5 10 6 22 3 27 -4 6 0 11 7
12 35 4 43 3 48 -3 3 -4 5 -93 4 -198 l-1 -191 454 0 453 0 0 1410 c0 1336 -1
1410 -17 1411 -10 0 -308 1 -663 0 -355 0 -654 2 -665 4 -18 4 -20 12 -20 75
0 41 4 70 10 70 7 0 7 3 0 8 -12 8 -14 192 -2 192 4 0 5 5 1 12 -10 16 -11
468 -1 468 4 0 4 8 0 18 -7 14 -9 177 -3 207 1 6 3 19 4 29 1 24 26 34 27 12
2 -18 5 -35 9 -38 1 -2 3 -214 4 -473 2 -258 4 -472 4 -475 1 -3 297 -5 658
-5 l656 0 -5 530 c-5 549 -7 571 -52 745 -9 36 -17 70 -18 75 -1 6 -4 12 -7
15 -3 3 -11 23 -19 45 -18 54 -74 169 -83 173 -5 2 -8 10 -8 18 0 8 -4 14 -9
14 -5 0 -13 9 -16 21 -8 24 -104 139 -155 186 -79 71 -106 93 -117 93 -7 0
-13 4 -13 8 0 4 -25 21 -55 37 -30 17 -55 33 -55 38 0 4 -6 7 -14 7 -7 0 -38
11 -67 24 -56 24 -90 39 -99 40 -3 1 -11 5 -17 9 -7 5 -13 6 -13 4 0 -3 -21 1
-47 9 -63 20 -135 34 -238 50 -43 6 -441 14 -447 9z m233 -3122 c0 -5 1 -190
2 -413 2 -375 -2 -460 -23 -460 -11 0 -21 30 -14 41 3 5 0 9 -6 9 -8 0 -8 6 0
20 6 11 7 20 3 20 -10 0 -10 651 0 667 4 6 4 14 -1 16 -6 4 -8 55 -3 100 1 4
10 7 21 7 11 0 20 -3 21 -7z"/>
<path d="M2729 10417 c-1 -1 -2 -1128 -3 -2504 l-1 -2502 658 -1 c522 0 657 2
658 12 2 14 1 15 -5 55 -3 15 -8 60 -11 98 -4 39 -9 88 -11 110 -7 69 -14 138
-18 185 -3 25 -5 45 -6 45 -1 0 -3 14 -5 30 -3 37 -15 159 -20 200 -21 202
-23 220 -25 220 -1 0 -11 122 -13 163 -1 12 -3 22 -6 22 -4 0 -6 24 -6 53 0
28 -2 56 -4 62 -3 5 -6 25 -7 45 -1 19 -5 55 -9 80 -3 25 -8 68 -10 95 -2 28
-6 68 -9 90 -9 69 -16 138 -22 200 -3 33 -7 71 -9 85 -3 13 -7 58 -11 99 -3
41 -7 83 -9 92 -2 10 -7 53 -10 96 -4 43 -9 86 -11 96 -2 10 -6 46 -9 80 -3
34 -8 78 -10 97 -11 85 -22 181 -28 264 -2 25 20 32 26 9 3 -10 8 -45 12 -78
3 -33 8 -71 10 -85 2 -14 6 -47 10 -75 3 -27 7 -63 10 -80 3 -16 7 -53 9 -82
3 -28 7 -67 10 -85 3 -18 8 -54 11 -80 3 -27 8 -69 12 -95 3 -27 7 -67 7 -90
1 -24 3 -43 7 -43 3 0 5 -10 6 -22 0 -13 3 -43 6 -68 4 -25 9 -67 12 -95 3
-27 7 -63 10 -80 6 -40 18 -154 18 -182 1 -13 3 -23 7 -23 3 0 6 -15 6 -33 1
-17 4 -57 8 -87 3 -30 8 -71 10 -90 2 -19 7 -60 11 -90 4 -30 8 -66 10 -80 1
-14 3 -25 4 -25 2 0 4 -22 5 -50 2 -27 5 -50 6 -50 1 0 3 -16 5 -35 2 -35 9
-94 21 -180 4 -25 8 -58 9 -75 2 -16 4 -30 5 -30 1 0 3 -16 5 -35 4 -59 15
-164 19 -190 7 -38 18 -120 21 -160 4 -35 17 -136 20 -155 1 -5 3 -20 3 -32
l2 -23 703 0 703 0 -1 143 c0 78 3 150 7 160 5 9 5 17 1 17 -10 0 -10 521 0
537 3 5 3 13 0 17 -4 4 -7 935 -8 2069 l0 2062 -658 2 -657 2 5 -47 c11 -98
15 -138 20 -187 2 -27 6 -63 9 -80 3 -16 8 -57 11 -90 4 -33 13 -105 20 -160
7 -55 11 -110 10 -122 -1 -13 1 -23 5 -23 5 0 7 -7 6 -16 -1 -9 1 -41 6 -72 4
-32 10 -86 14 -122 3 -36 8 -76 10 -90 11 -74 17 -140 18 -177 1 -24 4 -43 7
-43 4 0 7 -15 7 -32 0 -18 1 -35 2 -38 1 -3 3 -23 5 -45 2 -22 6 -56 8 -75 3
-19 8 -62 12 -95 3 -33 8 -73 11 -90 2 -16 7 -50 9 -75 3 -25 7 -63 10 -85 3
-22 7 -62 10 -90 2 -27 7 -72 11 -100 4 -27 8 -59 9 -70 1 -11 3 -20 4 -20 1
0 4 -23 6 -51 2 -28 6 -73 10 -100 3 -27 8 -69 11 -94 12 -108 23 -202 30
-245 2 -16 7 -61 10 -100 3 -38 6 -74 7 -79 1 -5 -3 -10 -10 -13 -13 -5 -20
15 -28 82 -3 28 -8 60 -11 73 -2 13 -7 49 -9 80 -3 31 -7 68 -10 82 -3 14 -7
45 -10 70 -3 25 -8 61 -10 80 -3 19 -8 62 -11 95 -8 71 -12 100 -14 100 -1 0
-4 18 -5 40 -2 22 -6 56 -9 75 -3 19 -8 55 -11 80 -3 25 -8 61 -10 80 -3 19
-7 51 -10 70 -2 19 -6 53 -9 75 -4 22 -9 60 -12 85 -6 53 -13 105 -18 140 -2
14 -7 52 -10 85 -4 33 -9 71 -11 85 -2 14 -7 43 -10 65 -2 22 -7 60 -11 85 -3
25 -7 59 -9 75 -1 17 -6 53 -10 80 -4 28 -9 61 -10 75 -2 14 -6 45 -9 70 -4
25 -8 61 -11 80 -2 19 -8 58 -11 85 -4 28 -7 58 -6 68 0 9 -2 17 -6 17 -4 0
-7 19 -8 43 -1 38 -7 97 -19 167 -2 14 -7 50 -10 80 -3 30 -8 66 -10 80 -5 36
-18 132 -20 155 -2 20 -10 20 -703 22 -386 1 -703 1 -703 0z"/>
<path d="M5885 10407 c-2 -7 -4 -19 -4 -27 0 -8 -3 -46 -6 -85 -3 -38 -7 -101
-10 -140 -2 -38 -7 -106 -10 -150 -3 -44 -8 -114 -10 -155 -2 -41 -4 -75 -5
-75 -1 0 -3 -31 -5 -70 -3 -38 -7 -104 -10 -145 -10 -139 -17 -245 -18 -280
-1 -19 -6 -38 -12 -42 -6 -5 -5 -8 3 -8 7 0 11 -4 8 -9 -6 -9 -18 -172 -20
-248 0 -18 -3 -33 -6 -33 -3 0 -6 -35 -6 -78 -1 -42 -5 -117 -8 -167 -4 -49
-9 -117 -11 -150 -2 -33 -7 -103 -11 -155 -7 -101 -8 -117 -19 -280 -3 -58 -8
-123 -10 -145 -3 -36 -14 -190 -20 -290 -1 -22 -5 -83 -9 -135 -11 -160 -14
-201 -21 -305 -3 -55 -8 -118 -11 -140 -2 -22 -7 -85 -9 -140 -3 -55 -7 -122
-9 -150 -6 -75 -17 -221 -22 -300 -9 -138 -14 -211 -19 -275 -2 -36 -7 -96 -9
-135 -3 -38 -8 -108 -11 -155 -4 -47 -8 -119 -11 -160 -2 -41 -7 -111 -10
-155 -3 -44 -7 -107 -8 -140 0 -33 -5 -63 -11 -67 -5 -4 289 -7 655 -5 l665 2
2 498 c0 274 4 504 6 512 3 7 14 11 24 9 17 -5 18 -31 18 -515 l-1 -509 659 0
659 0 -6 93 c-4 50 -9 133 -12 182 -3 50 -7 119 -10 155 -2 36 -6 99 -8 140
-2 41 -5 75 -6 75 0 0 -3 43 -6 95 -10 211 -12 245 -14 245 -1 0 -3 29 -5 65
-5 82 -13 220 -20 330 -3 47 -8 119 -10 160 -3 41 -7 113 -10 160 -3 47 -7
121 -10 165 -2 44 -5 80 -5 80 -1 0 -3 36 -6 80 -5 79 -9 152 -18 290 -2 39
-7 120 -10 180 -4 61 -8 137 -11 170 -3 33 -8 101 -11 150 -2 50 -7 119 -9
155 -2 36 -6 110 -10 165 -3 55 -7 132 -10 170 -7 105 -15 221 -20 310 -10
167 -15 253 -21 330 -6 81 -9 127 -19 310 -3 55 -7 125 -10 155 -3 30 -8 102
-11 160 -3 58 -7 128 -9 155 -2 28 -6 97 -10 154 -4 63 -11 109 -19 116 -18
19 -2005 20 -2011 2z m1016 -2269 c1 -7 2 -135 3 -284 l1 -270 -22 -2 c-22 -2
-22 2 -25 101 -2 56 -2 184 0 285 3 173 4 182 22 182 11 0 21 -6 21 -12z"/>
<path d="M8244 7915 l0 -2505 653 0 c721 0 666 -5 664 63 0 18 0 41 0 52 1 24
1 40 0 80 -1 45 -1 137 0 160 1 24 1 41 0 80 -2 36 -1 212 0 240 1 32 1 48 0
75 -1 14 -1 53 -1 88 1 34 -2 67 -5 72 -3 6 -3 10 2 10 4 0 7 48 5 107 -1 60
-2 117 -1 128 1 30 1 48 0 75 -1 14 -1 53 -1 88 1 34 -2 67 -5 72 -3 6 -3 10
2 10 4 0 7 48 5 107 -1 60 -2 117 -1 128 1 24 1 42 -1 91 -2 39 15 59 34 41 8
-7 12 -149 13 -496 1 -411 8 -816 13 -816 1 0 3 -27 5 -60 5 -65 10 -118 20
-180 3 -22 7 -51 9 -65 2 -14 9 -53 16 -87 l13 -63 658 0 659 0 -5 23 c-18 83
-35 182 -41 242 -3 39 -8 78 -10 87 -7 42 -16 297 -19 563 -3 325 -10 416 -40
560 -21 100 -77 269 -97 293 -7 8 -12 17 -10 19 7 9 -93 198 -122 229 -6 7
-27 31 -46 55 -63 77 -165 169 -189 169 -6 0 -11 4 -11 9 0 5 -16 15 -35 22
-19 7 -35 17 -35 23 0 5 -3 7 -6 3 -3 -3 -27 2 -53 11 -25 10 -53 18 -61 17
-8 0 -16 10 -18 22 -3 19 4 23 55 33 108 23 215 84 309 177 58 58 154 189 154
212 0 6 4 11 10 11 5 0 15 18 21 40 7 22 16 40 21 40 4 0 7 3 6 8 -1 4 5 23
14 43 20 45 69 186 74 212 2 10 5 26 8 35 15 49 29 142 42 282 11 112 5 418
-9 505 -3 17 -9 50 -12 75 -41 259 -144 477 -303 637 -32 33 -74 70 -93 83
-19 13 -36 27 -39 30 -11 13 -116 73 -183 104 -121 55 -313 107 -462 123 -22
3 -384 7 -805 9 l-766 4 0 -2505z m1362 892 c1 -333 -1 -459 -10 -464 -32 -21
-34 -12 -32 253 0 145 -2 264 -6 264 -4 0 -4 10 0 23 4 12 7 99 5 192 -1 94 0
176 3 183 2 8 12 12 21 10 17 -3 18 -33 19 -461z"/>
<path d="M1534 5281 c-2 -2 -23 -5 -47 -7 -45 -2 -128 -14 -137 -19 -3 -2 -21
-6 -40 -9 -145 -22 -370 -137 -495 -252 -87 -80 -227 -292 -241 -364 0 -3 -6
-18 -12 -33 -7 -15 -14 -42 -17 -59 -3 -17 -10 -38 -15 -47 -4 -9 -11 -37 -15
-61 -4 -25 -8 -47 -11 -51 -3 -6 -11 -75 -20 -189 -6 -74 -6 -2485 0 -2580 5
-83 13 -150 21 -183 3 -12 7 -33 9 -47 2 -14 6 -32 10 -40 3 -8 7 -24 9 -35 7
-35 20 -80 27 -90 3 -5 13 -30 20 -55 7 -25 17 -50 22 -56 4 -6 20 -33 34 -60
14 -27 41 -71 60 -99 40 -59 175 -193 222 -220 17 -11 32 -23 32 -27 0 -4 4
-8 10 -8 5 0 32 -14 60 -30 28 -17 57 -30 65 -30 7 0 15 -4 17 -8 5 -15 219
-78 298 -88 14 -2 50 -7 80 -11 108 -15 471 -7 540 12 8 2 26 6 40 9 45 8 122
28 150 39 8 3 33 11 55 18 53 16 197 92 260 137 57 40 195 175 195 190 0 5 7
12 15 16 8 3 15 12 15 19 0 8 9 22 20 32 11 10 20 22 20 26 0 5 13 31 30 59
16 27 27 50 24 50 -4 0 -2 6 4 13 25 31 78 211 97 332 15 95 17 182 19 764 l1
615 -595 0 c-327 1 -602 0 -611 -2 -15 -3 -17 -59 -16 -616 0 -337 -4 -622 -7
-634 -8 -24 -25 -30 -27 -9 -1 6 -3 189 -4 404 0 216 -4 395 -8 399 -3 4 -3
14 1 23 9 19 8 448 -1 457 -3 4 -3 14 1 23 10 20 9 448 -1 457 -3 4 -3 14 1
23 7 13 8 446 2 461 -1 3 -1 10 0 15 7 26 5 137 -2 141 -5 3 -5 11 -1 17 4 7
8 48 9 92 0 44 2 88 2 97 3 24 27 12 30 -15 2 -12 4 -296 5 -632 l2 -610 610
0 610 0 -1 615 c-1 338 -5 647 -10 685 -4 39 -8 82 -9 98 0 15 -3 27 -6 27 -4
0 -7 10 -7 23 0 28 -45 178 -68 232 -10 22 -17 43 -16 48 1 4 -3 7 -8 7 -5 0
-9 3 -8 8 1 4 -6 23 -16 42 -63 117 -194 264 -302 338 -75 50 -213 122 -236
122 -9 0 -19 4 -22 9 -5 7 -30 15 -81 27 -5 1 -12 3 -15 4 -39 14 -191 41
-260 46 -25 1 -45 3 -45 5 0 4 -316 5 -321 0z"/>
<path d="M3015 5222 c-17 -11 -15 -4635 2 -4642 7 -3 281 -5 610 -4 l598 0 2
815 c2 448 5 820 8 828 4 11 8 11 19 -4 10 -14 13 -120 15 -489 2 -577 8 -755
26 -891 2 -16 6 -52 10 -80 3 -27 10 -67 16 -89 6 -21 8 -43 6 -50 -3 -6 0
-18 7 -26 9 -13 205 -15 1478 -15 l1466 0 0 533 c0 486 -2 532 -17 533 -9 0
-119 0 -246 1 -126 0 -237 2 -246 4 -14 4 -16 48 -16 424 l0 420 263 0 262 0
-1 533 -2 532 -260 0 -260 0 -2 285 c-1 157 1 292 3 300 3 13 41 15 261 15
l258 0 2 175 c2 96 3 209 2 250 0 41 0 202 0 357 0 156 -3 282 -7 282 -4 -1
-9 -1 -12 0 -15 6 -239 3 -249 -3 -6 -4 -11 -4 -11 1 0 9 -214 8 -229 -2 -6
-3 -11 -3 -11 2 0 9 -214 8 -229 -2 -6 -3 -11 -3 -11 2 0 9 -214 8 -229 -2 -6
-3 -11 -3 -11 2 0 9 -214 8 -229 -2 -6 -3 -11 -3 -11 2 0 9 -214 8 -229 -2 -6
-3 -11 -3 -11 2 0 6 -157 8 -256 4 -14 -1 -26 -41 -12 -41 5 0 7 -4 4 -9 -3
-5 -6 -993 -6 -2197 0 -1203 -3 -2184 -6 -2181 -6 6 -11 50 -18 179 -2 37 -7
71 -10 77 -4 5 -2 12 4 16 6 4 7 11 3 17 -3 7 -8 127 -10 267 -3 242 -9 436
-13 436 -1 0 -3 14 -5 31 -11 107 -50 269 -76 316 -5 10 -9 23 -9 28 0 23
-108 234 -135 266 -5 6 -17 22 -25 35 -8 13 -49 58 -91 100 -85 86 -180 144
-263 161 -47 10 -55 15 -52 32 2 16 13 23 47 28 24 4 82 26 129 49 69 34 100
58 168 127 45 47 82 89 82 94 0 5 10 24 23 41 20 28 85 154 109 212 20 49 46
135 41 135 -3 0 -1 6 5 13 8 10 17 45 28 112 1 6 3 12 4 15 21 43 37 539 20
586 -7 18 -7 23 2 18 7 -4 8 -3 4 5 -4 7 -10 29 -12 49 -6 55 -20 137 -24 137
-1 0 -3 9 -5 20 -15 94 -118 343 -146 353 -5 2 -9 9 -9 15 0 12 -88 116 -135
160 -120 112 -362 233 -500 250 -11 1 -23 5 -26 10 -3 4 -31 8 -62 10 -31 1
-57 5 -57 9 0 4 -8 6 -17 6 -10 0 -58 3 -108 7 -109 9 -1329 10 -1343 1 -6 -3
-12 -2 -14 4 -1 5 -8 6 -13 2z m1252 -1490 c0 -229 -2 -423 -4 -429 -3 -7 -11
-13 -19 -13 -11 0 -14 20 -14 88 -1 102 -1 727 0 759 0 16 5 20 18 16 18 -4
19 -25 19 -421z"/>
<path d="M7313 5219 c-15 -5 -26 -69 -13 -69 3 0 7 -33 8 -72 4 -144 9 -215
16 -226 4 -7 2 -12 -6 -12 -8 0 -9 -3 -2 -8 5 -4 10 -35 10 -69 -1 -35 3 -63
8 -63 5 0 3 -6 -3 -13 -6 -8 -8 -17 -4 -20 3 -4 8 -28 9 -54 12 -191 15 -247
17 -315 1 -43 4 -78 7 -78 3 0 6 -26 6 -58 1 -31 5 -113 9 -182 5 -69 8 -151
9 -182 1 -32 3 -58 6 -58 3 0 5 -35 5 -78 0 -42 2 -81 4 -87 3 -5 6 -36 7 -70
2 -63 10 -194 19 -330 3 -44 8 -111 10 -150 3 -38 7 -108 10 -155 2 -47 7
-119 10 -160 3 -41 8 -120 11 -175 2 -55 7 -122 9 -150 2 -27 7 -95 9 -150 3
-55 8 -131 10 -170 11 -149 17 -243 21 -315 3 -41 7 -111 9 -155 9 -140 16
-248 21 -315 3 -36 8 -105 10 -155 5 -90 9 -151 20 -320 3 -49 8 -119 10 -154
2 -35 6 -66 10 -69 6 -6 1302 -10 1323 -4 9 3 12 175 12 813 0 784 1 809 19
809 18 0 18 -25 19 -806 0 -443 3 -808 6 -812 9 -8 1327 -9 1332 0 4 6 12 101
19 218 2 30 6 89 9 130 3 41 8 116 11 165 3 50 8 119 11 155 3 36 7 97 9 135
3 39 7 108 11 155 3 47 7 114 9 150 2 36 4 65 5 65 1 0 3 32 5 70 5 79 11 172
20 290 5 78 11 154 20 305 3 41 7 102 10 135 6 73 13 190 20 310 3 50 8 115
10 145 8 88 17 240 19 297 0 29 3 53 6 53 3 0 5 24 6 53 1 59 11 221 29 457 3
41 8 111 10 155 3 44 7 107 10 140 3 33 7 96 9 140 5 91 15 229 21 295 2 25 7
92 11 150 8 131 10 160 19 285 14 202 15 185 -9 186 -11 0 -287 1 -612 2
l-592 2 4 -165 c2 -91 6 -236 8 -323 1 -86 6 -160 9 -163 4 -4 2 -14 -3 -24
-5 -10 -7 -20 -4 -23 3 -3 7 -94 10 -204 2 -109 6 -279 9 -378 3 -99 7 -261
10 -360 2 -99 7 -290 10 -425 14 -496 14 -480 -7 -480 -20 0 -18 -8 -23 160
-1 52 -5 208 -9 345 -4 138 -9 340 -11 450 -3 110 -5 200 -5 200 -1 0 -7 219
-14 505 -3 107 -8 301 -11 430 -4 129 -8 281 -9 338 -2 56 -6 105 -9 109 -9 9
-782 8 -796 -1 -6 -4 -8 -12 -5 -18 8 -13 11 -68 4 -68 -3 0 -6 -62 -7 -138
-3 -311 -11 -573 -16 -579 -4 -3 -2 -13 3 -23 5 -10 7 -20 4 -23 -5 -5 -10
-158 -18 -548 -2 -91 -6 -171 -10 -177 -3 -6 -2 -13 4 -17 6 -4 7 -11 4 -17
-4 -5 -8 -101 -10 -211 -6 -296 -12 -522 -14 -522 -1 0 -2 -43 -3 -95 -2 -81
-4 -95 -19 -98 -15 -3 -18 5 -19 45 -1 26 0 53 1 58 2 10 5 136 14 583 3 111
8 212 11 223 5 16 4 19 -5 14 -9 -5 -11 -4 -6 4 11 18 15 101 4 101 -5 0 -6 6
-1 13 4 6 9 44 9 82 1 39 5 176 8 305 3 129 8 332 12 450 3 118 6 276 8 351 2
75 6 141 10 147 4 7 3 12 -1 12 -5 0 -9 9 -9 20 0 11 3 20 6 20 7 0 3 101 -4
108 -7 6 -1184 8 -1203 1z"/>
</g>
</svg>
